<svg width="291" height="182" viewBox="0 0 291 182" fill="none" xmlns="http://www.w3.org/2000/svg">
<path d="M75.7253 76.8236C76.8838 78.1676 78.0774 79.3524 79.3062 80.3781C80.57 81.3684 81.8339 82.2349 83.0977 82.9776C84.3616 83.7203 85.6079 84.3393 86.8366 84.8344C88.0653 85.2942 88.5196 85.4838 90.3648 85.9485C92.21 86.4132 102.073 86.6382 102.213 86.6382C102.354 86.6382 102.186 98.6894 102.186 98.6894C102.046 98.7248 100.862 98.8401 99.7383 99.0523C98.65 99.2999 97.1755 99.4237 95.3149 99.4237C91.8744 99.4237 88.7324 99.07 85.8887 98.3626C83.0451 97.6553 80.4472 96.718 78.095 95.5509C75.7429 94.3838 73.5838 93.0398 71.6178 91.519C69.6869 89.9628 67.8614 88.3358 66.1412 86.6382C64.456 84.9405 62.8587 83.2429 61.3491 81.5452C59.8395 79.8122 58.3475 78.1853 56.873 76.6644C55.3985 75.1436 53.8889 73.7643 52.3442 72.5264C50.8346 71.2885 49.2197 70.3159 47.4995 69.6085C45.5686 68.7951 43.5675 68.1408 41.4962 67.6456C39.46 67.1505 37.4414 66.7791 35.4403 66.5315C33.4392 66.2486 31.4908 66.0541 29.595 65.9479C27.7343 65.8418 26.0317 65.7888 24.487 65.7888C22.205 65.7888 20.397 65.8418 19.063 65.9479C18.2906 65.9833 17.606 66.0364 17.0092 66.1071V98.8401H1.79045V98.415V6.34351L17.0092 0V53.4808C22.1699 53.4808 26.6811 53.2686 30.5429 52.8441C34.4046 52.4197 37.7573 51.8538 40.601 51.1465C43.4446 50.4391 45.8494 49.608 47.8154 48.653C49.8165 47.6981 51.5016 46.7078 52.8708 45.6821C54.2751 44.6211 55.4687 43.5424 56.4517 42.446C57.4347 41.3496 58.3299 40.2885 59.1374 39.2629C62.4023 35.2309 65.7374 32.0124 69.1428 29.6074C72.5481 27.167 75.8482 25.2925 79.0429 23.9839C82.2376 22.6753 85.2217 21.8088 87.9951 21.3844C90.8037 20.96 93.2085 20.7477 95.2095 20.7477C96.8947 20.7477 98.2287 20.8185 99.2117 20.96C100.23 21.1014 100.792 21.1898 100.897 21.2252L97.4739 33.0027C97.2282 32.932 96.9473 32.8789 96.6314 32.8436C96.0697 32.7375 95.2798 32.6844 94.2617 32.6844C93.068 32.6844 91.5936 32.8436 89.8382 33.1619C88.118 33.4448 86.2047 34.0815 84.0983 35.0718C81.9919 36.0267 79.7626 37.406 77.4104 39.2098C75.0583 40.9782 72.671 43.3478 70.2486 46.3188C69.3359 47.4152 68.2827 48.6 67.089 49.8732C65.9305 51.1111 64.6667 52.3136 63.2975 53.4808C61.9283 54.6125 60.4539 55.6382 58.8741 56.5578C57.3294 57.4773 55.7144 58.1493 54.0293 58.5737C55.1527 58.9274 56.4166 59.564 57.8208 60.4836C59.2251 61.4032 60.6645 62.4642 62.139 63.6667C63.6135 64.8339 65.0704 66.1071 66.5098 67.4865C67.9843 68.8304 69.3359 70.1214 70.5646 71.3592C71.7933 72.5618 72.8641 73.6582 73.7769 74.6485C74.6896 75.6388 75.3391 76.3638 75.7253 76.8236Z" fill="#4868D0"/>
<path d="M217.908 21.0661C217.908 21.0661 217.693 97.1054 217.908 98.7123C218.123 100.319 217.853 101.677 220.28 103.307C222.706 104.937 228.098 101.949 228.098 101.949L208.008 115.738C208.008 115.738 205.785 113.133 204.911 109.826C204.037 106.519 203.678 101.726 203.531 98.8021C203.385 95.8787 203.531 91.3067 203.531 91.3067C203.531 87.5577 203.233 83.8441 202.636 80.1659C202.075 76.4876 201.197 72.8801 200.003 69.3433C199.758 68.5652 199.354 67.4334 198.792 65.9479C198.23 64.4271 197.476 62.7118 196.528 60.8019C195.58 58.8567 194.404 56.7877 192.999 54.5948C191.595 52.3667 189.893 50.1739 187.891 48.0164C185.925 45.8236 183.643 43.7192 181.046 41.7032C178.448 39.6873 175.464 37.9189 172.093 36.3981C168.723 34.8419 164.949 33.604 160.771 32.6844C156.629 31.7649 152.012 31.3051 146.922 31.3051C142.498 31.3051 138.549 31.6941 135.073 32.4722C131.633 33.2149 128.614 34.2583 126.016 35.6023C123.418 36.9109 121.206 38.4671 119.381 40.2708C117.59 42.0746 116.133 44.0375 115.01 46.1596C113.886 48.2817 113.061 50.5099 112.535 52.8441C112.008 55.1784 111.71 57.5304 111.64 59.9C111.64 60.0415 111.64 60.1653 111.64 60.2714C111.64 62.3227 111.903 64.4448 112.429 66.6376C112.956 68.8304 113.799 70.9879 114.957 73.11C116.116 75.232 117.573 77.2303 119.328 79.1048C121.083 80.9793 123.155 82.6239 125.542 84.0386C127.929 85.418 130.632 86.5144 133.651 87.3279C136.671 88.1413 140.006 88.5481 143.657 88.5481C147.764 88.5481 151.819 87.9645 155.821 86.7973C159.859 85.6302 163.72 83.8441 167.407 81.4391C171.128 78.9987 174.621 75.904 177.886 72.155C181.151 68.406 184.065 63.9673 186.628 58.839L197.528 64.3564C191.525 76.3815 183.959 85.471 174.832 91.6251C165.704 97.7437 155.26 100.803 143.499 100.803C142.516 100.803 141.27 100.803 139.76 100.803C138.25 100.803 136.548 100.697 134.652 100.485C132.756 100.308 130.702 99.9719 128.491 99.4767C126.279 98.9816 123.98 98.2389 121.592 97.2486C119.205 96.2583 116.765 94.985 114.273 93.4288C111.815 91.8373 109.393 89.8567 107.005 87.487C103.179 83.7026 100.3 79.4939 98.3692 74.8607C96.4734 70.2275 95.5255 65.4174 95.5255 60.4306C95.5255 60.183 95.5255 59.9177 95.5255 59.6348C95.5957 56.3809 96.1048 53.1271 97.0527 49.8732C98.0357 46.584 99.4575 43.4363 101.318 40.43C103.214 37.4237 105.566 34.6297 108.375 32.0478C111.183 29.4306 114.483 27.167 118.275 25.2572C122.066 23.3473 126.332 21.8442 131.071 20.7477C135.846 19.6513 141.129 19.1031 146.922 19.1031C152.047 19.1031 156.787 19.5099 161.14 20.3233C165.528 21.1014 169.566 22.1801 173.252 23.5595C176.938 24.9388 180.308 26.5658 183.363 28.4403C186.417 30.3148 189.19 32.3484 191.683 34.5412C194.176 36.6987 196.387 38.9622 198.318 41.3319C200.284 43.6662 202.022 46.0181 203.531 48.3878V21.0661H217.908Z" fill="#4868D0"/>
<path d="M228.282 21.0661H285.945L286.103 117.446C286.103 117.446 284.697 113.639 280.736 108.927C276.774 104.215 272.516 101.949 272.516 101.949V34.1168H242.289V99.5667V95.6964C242.289 95.6964 238.039 95.812 235.357 96.2401C232.675 96.6682 228.282 97.6901 228.282 97.6901V21.0661Z" fill="#4868D0"/>
<path d="M54.5033 179.454C49.5883 179.454 44.8313 179.118 40.2324 178.446C35.6334 177.774 31.3152 176.766 27.278 175.422C23.2407 174.042 19.5545 172.309 16.2193 170.222C12.8842 168.136 10.0054 165.66 7.58306 162.795C5.1958 159.895 3.33514 156.588 2.00109 152.875C0.667029 149.161 0 145.023 0 140.46C0 136.11 0.667029 132.131 2.00109 128.524C3.33514 124.916 5.1958 121.662 7.58306 118.762C10.0054 115.862 12.8842 113.333 16.2193 111.176C19.5545 108.983 23.2407 107.161 27.278 105.711C31.3152 104.261 35.6334 103.183 40.2324 102.475C44.8313 101.733 49.5883 101.361 54.5033 101.361L54.4506 114.412C47.8856 114.447 42.0755 115.225 37.0201 116.746C31.9998 118.232 27.787 120.195 24.3816 122.635C20.9763 125.04 18.3784 127.799 16.5879 130.911C14.8326 133.988 13.9198 137.153 13.8496 140.407C13.8496 140.549 13.8496 140.69 13.8496 140.832C13.8496 143.944 14.6571 147.021 16.272 150.063C17.8869 153.104 20.3795 155.845 23.7497 158.286C27.1551 160.726 31.403 162.707 36.4935 164.228C41.6191 165.748 47.6048 166.527 54.4506 166.562L54.5033 179.454Z" fill="#4868D0"/>
<path d="M102.213 149.214C102.213 155.616 101.792 160.921 100.95 165.13C100.107 169.338 98.8607 172.698 97.2106 175.209C95.5957 177.685 93.5595 179.436 91.1021 180.461C88.6797 181.487 85.8712 182 82.6764 182C79.7977 182 77.2524 181.576 75.0407 180.727C72.8641 179.878 70.9859 178.764 69.4061 177.384C67.8263 176.005 66.5098 174.467 65.4566 172.769C64.4034 171.071 63.5608 169.374 62.9289 167.676C62.297 165.978 61.8581 164.369 61.6124 162.848C61.3666 161.327 61.2438 160.072 61.2438 159.082H73.7769C73.7769 163.043 74.5492 166.049 76.0939 168.1C77.6737 170.116 79.6924 171.124 82.1498 171.124C83.5541 171.124 84.6951 170.682 85.5727 169.798C86.4504 168.878 87.135 167.57 87.6265 165.872C88.1531 164.175 88.5042 162.141 88.6797 159.771C88.8552 157.366 88.943 154.678 88.943 151.707V151.601C87.7494 151.778 86.6084 151.92 85.5201 152.026C84.4669 152.132 83.4488 152.185 82.4658 152.185C78.3232 152.185 74.8652 151.46 72.0917 150.01C69.3183 148.56 67.089 146.65 65.4039 144.28C63.7188 141.875 62.4725 139.169 61.665 136.163C60.8927 133.122 60.4187 130.009 60.2432 126.826C60.173 125.624 60.1379 124.403 60.1379 123.165C60.1379 116.658 61.0682 109.425 62.9289 101.467H76.4625C74.7423 108.93 73.8295 115.579 73.7242 121.415C73.7242 121.662 73.7242 121.928 73.7242 122.211C73.7242 124.403 73.8646 126.649 74.1455 128.948C74.4263 131.212 74.9881 133.281 75.8306 135.155C76.7083 136.994 77.9019 138.497 79.4115 139.665C80.9562 140.796 82.9222 141.362 85.3094 141.362C86.3275 141.362 87.5387 141.221 88.943 140.938V101.539C88.943 101.539 88.9746 100.265 88.1657 99.4237C87.3569 98.5824 85.8887 98.3626 85.8887 98.3626L102.186 98.6894C102.186 98.6894 102.186 100.319 102.213 101.524C102.241 102.729 102.213 149.214 102.213 149.214Z" fill="#4868D0"/>
<path d="M199.529 101.414V182H184.363V115.155C180.572 116.251 176.394 117.56 171.83 119.08C167.301 120.566 162.369 122.529 157.033 124.969C154.259 126.242 151.433 127.657 148.554 129.213C145.676 130.734 142.885 132.396 140.181 134.2C137.478 136.004 134.933 137.932 132.546 139.983C130.158 141.999 128.069 144.156 126.279 146.455C124.524 148.719 123.119 151.106 122.066 153.617C121.048 156.128 120.539 158.746 120.539 161.469C120.539 163.167 120.802 164.511 121.329 165.501C121.891 166.456 122.54 167.181 123.277 167.676C124.015 168.136 124.787 168.436 125.594 168.578C126.402 168.684 127.069 168.737 127.596 168.737V181.31C126.999 181.31 126.051 181.222 124.752 181.045C123.453 180.904 122.014 180.603 120.434 180.143C118.854 179.683 117.222 179.011 115.536 178.127C113.886 177.243 112.359 176.076 110.955 174.626C109.586 173.14 108.462 171.337 107.585 169.215C106.707 167.057 106.268 164.475 106.268 161.469C106.268 157.331 107.023 153.405 108.533 149.691C110.042 145.942 112.096 142.423 114.694 139.134C117.292 135.845 120.346 132.768 123.857 129.903C127.402 127.003 131.194 124.315 135.231 121.839C139.304 119.363 143.534 117.1 147.922 115.049C152.311 112.962 156.664 111.07 160.982 109.372C165.3 107.674 169.478 106.171 173.515 104.863C177.588 103.519 181.326 102.369 184.732 101.414H199.529Z" fill="#4868D0"/>
<path d="M285.945 147.463C285.91 148.171 285.892 148.896 285.892 149.638C285.892 151.018 285.962 152.609 286.103 154.413C286.278 156.217 286.594 158.091 287.05 160.037C287.507 161.946 288.069 163.609 288.736 165.023C289.403 166.403 289.92 167.008 291 167.782L284.207 180.568C282.838 179.931 281.609 179.118 280.521 178.127C279.467 177.102 278.52 175.952 277.677 174.679C276.834 173.406 276.097 172.044 275.465 170.594C274.868 169.144 274.342 167.658 273.885 166.137C271.884 168.295 269.655 170.276 267.198 172.079C264.74 173.883 262.072 175.457 259.193 176.801C256.35 178.11 253.313 179.135 250.083 179.878C246.888 180.656 243.536 181.098 240.025 181.204C239.569 181.204 239.13 181.204 238.708 181.204C235.76 181.204 232.846 180.868 229.967 180.196C227.088 179.56 224.35 178.605 221.752 177.331C219.189 176.023 216.872 174.502 214.801 172.769C212.765 171.001 211.027 169.108 209.587 167.092C208.148 165.076 207.042 162.99 206.27 160.832C205.533 158.639 205.164 156.5 205.164 154.413C205.164 150.947 205.726 148.011 206.849 145.606C208.008 143.166 209.482 141.132 211.273 139.505C213.098 137.843 215.134 136.517 217.381 135.527C219.663 134.536 221.927 133.776 224.174 133.245C226.456 132.715 228.598 132.343 230.599 132.131C232.635 131.919 234.32 131.76 235.654 131.654L236.391 131.601C238.533 131.424 240.99 131.282 243.764 131.176C246.572 131.035 249.521 130.946 252.611 130.911C255.7 130.84 258.842 130.805 262.037 130.805C265.267 130.805 268.374 130.823 271.358 130.858C271.358 128.842 270.673 126.755 269.304 124.598C267.935 122.405 266.057 120.407 263.669 118.603C261.282 116.764 258.438 115.261 255.138 114.094C251.874 112.891 248.345 112.29 244.554 112.29C242.447 112.29 240.271 112.502 238.024 112.926C235.812 113.351 233.548 114.041 231.231 114.995C228.949 115.95 227.02 116.96 224.324 118.246C223.559 118.611 222.841 118.922 222.163 119.194C217.548 121.045 211.147 119.595 208.008 115.738C210.535 112.873 213.309 110.415 216.328 108.364C219.382 106.313 224.904 103.258 228.098 101.949C230.855 100.952 233.215 100.65 235.357 100.227C237.762 99.7535 240.06 99.6878 242.289 99.5667C243.054 99.5251 243.809 99.5043 244.554 99.5043C249.75 99.5043 254.384 100.053 258.456 101.149C262.528 102.245 266.092 103.695 269.146 105.499C272.235 107.268 274.833 109.284 276.94 111.547C279.081 113.811 280.819 116.11 282.153 118.444C283.487 120.778 284.453 123.042 285.049 125.234C285.646 127.427 285.945 129.355 285.945 131.017C285.945 131.053 286.015 131.034 285.945 131.034C285.91 131.034 285.945 131.088 285.945 131.123V147.463ZM222.647 161.681C225.21 164.015 228.036 165.731 231.125 166.827C234.215 167.924 237.41 168.472 240.71 168.472C244.29 168.472 247.836 167.871 251.347 166.668C254.858 165.466 258.07 163.768 260.984 161.575C263.933 159.347 266.443 156.694 268.514 153.617C270.585 150.505 271.955 147.039 272.622 143.219C269.638 143.184 266.513 143.166 263.248 143.166C260.018 143.166 256.841 143.201 253.717 143.272C250.592 143.307 247.626 143.378 244.817 143.484C242.009 143.59 239.551 143.732 237.445 143.909L236.655 143.962C233.109 144.28 230.195 144.687 227.913 145.182C225.631 145.677 223.823 146.331 222.489 147.145C221.155 147.958 220.225 148.966 219.698 150.169C219.172 151.336 218.908 152.751 218.908 154.413C218.908 155.757 219.242 157.03 219.909 158.233C220.611 159.4 221.524 160.549 222.647 161.681Z" fill="#4868D0"/>
</svg>
