<svg width="1061" height="663" viewBox="0 0 1061 663" fill="none" xmlns="http://www.w3.org/2000/svg">
<path d="M276.098 279.857C280.322 284.753 284.674 289.069 289.154 292.806C293.762 296.413 298.37 299.57 302.978 302.276C307.586 304.981 312.13 307.236 316.61 309.04C321.09 310.715 322.747 311.405 329.474 313.098C336.202 314.791 372.163 315.611 372.675 315.611C373.187 315.611 372.575 359.512 372.575 359.512C372.063 359.64 367.747 360.06 363.651 360.833C359.683 361.735 354.307 362.186 347.523 362.186C334.979 362.186 323.522 360.898 313.154 358.321C302.786 355.744 293.314 352.33 284.738 348.078C276.162 343.827 268.29 338.931 261.122 333.39C254.082 327.722 247.426 321.795 241.154 315.611C235.01 309.426 229.186 303.242 223.682 297.058C218.178 290.744 212.738 284.818 207.362 279.278C201.986 273.737 196.481 268.713 190.849 264.203C185.345 259.694 179.457 256.151 173.185 253.574C166.145 250.611 158.849 248.227 151.297 246.423C143.873 244.62 136.513 243.267 129.217 242.365C121.921 241.334 114.817 240.625 107.905 240.239C101.121 239.852 94.9127 239.659 89.2807 239.659C80.9606 239.659 74.3686 239.852 69.5045 240.239C66.6885 240.368 64.1925 240.561 62.0165 240.819V360.06H6.52805V358.512V23.1085L62.0165 0V194.823C80.8326 194.823 97.2807 194.05 111.361 192.504C125.441 190.958 137.665 188.896 148.033 186.319C158.401 183.743 167.169 180.715 174.337 177.236C181.633 173.757 187.777 170.15 192.769 166.413C197.889 162.548 202.242 158.619 205.826 154.625C209.41 150.631 212.674 146.765 215.618 143.029C227.522 128.341 239.682 116.617 252.098 107.856C264.514 98.9656 276.546 92.1371 288.194 87.37C299.842 82.6029 310.722 79.4463 320.834 77.9002C331.075 76.3541 339.843 75.5811 347.139 75.5811C353.283 75.5811 358.147 75.8388 361.731 76.3541C365.443 76.8695 367.491 77.1916 367.875 77.3204L355.395 120.224C354.499 119.967 353.475 119.773 352.323 119.644C350.275 119.258 347.395 119.065 343.683 119.065C339.331 119.065 333.955 119.644 327.554 120.804C321.282 121.835 314.306 124.154 306.626 127.761C298.946 131.24 290.818 136.265 282.242 142.836C273.666 149.278 264.962 157.91 256.13 168.733C252.802 172.727 248.962 177.043 244.61 181.681C240.386 186.19 235.778 190.571 230.786 194.823C225.794 198.946 220.418 202.682 214.658 206.032C209.026 209.382 203.138 211.83 196.993 213.376C201.09 214.664 205.698 216.983 210.818 220.333C215.938 223.683 221.186 227.548 226.562 231.929C231.938 236.18 237.25 240.819 242.498 245.844C247.874 250.739 252.802 255.442 257.282 259.952C261.762 264.332 265.666 268.326 268.994 271.934C272.322 275.541 274.69 278.182 276.098 279.857Z" fill="#F0ECE7"/>
<path d="M794.502 76.7406C794.502 76.7406 793.719 353.741 794.502 359.595C795.285 365.449 794.302 370.396 803.15 376.333C811.997 382.27 831.658 371.386 831.658 371.386L758.406 421.618C758.406 421.618 750.303 412.128 747.116 400.081C743.929 388.034 742.62 370.572 742.086 359.922C741.551 349.273 742.086 332.617 742.086 332.617C742.086 318.96 740.998 305.432 738.822 292.033C736.774 278.633 733.574 265.492 729.222 252.608C728.326 249.773 726.853 245.65 724.805 240.239C722.757 234.699 720.005 228.45 716.549 221.493C713.093 214.406 708.805 206.869 703.685 198.881C698.565 190.764 692.357 182.776 685.061 174.917C677.893 166.929 669.573 159.263 660.101 151.919C650.629 144.575 639.749 138.133 627.461 132.593C615.173 126.924 601.413 122.415 586.18 119.065C571.076 115.715 554.244 114.04 535.684 114.04C519.556 114.04 505.156 115.457 492.484 118.292C479.94 120.997 468.932 124.798 459.459 129.694C449.987 134.461 441.923 140.13 435.267 146.701C428.739 153.272 423.427 160.422 419.331 168.153C415.235 175.883 412.227 184 410.307 192.504C408.387 201.007 407.299 209.575 407.043 218.207C407.043 218.723 407.043 219.174 407.043 219.56C407.043 227.033 408.003 234.763 409.923 242.751C411.843 250.739 414.915 258.599 419.139 266.329C423.363 274.06 428.675 281.339 435.075 288.168C441.475 294.996 449.027 300.987 457.731 306.141C466.435 311.166 476.292 315.16 487.3 318.123C498.308 321.086 510.468 322.568 523.78 322.568C538.756 322.568 553.54 320.442 568.132 316.19C582.852 311.939 596.932 305.432 610.373 296.671C623.941 287.781 636.677 276.507 648.581 262.85C660.485 249.193 671.109 233.024 680.453 214.342L720.197 234.441C698.309 278.247 670.725 311.359 637.445 333.777C604.165 356.066 566.084 367.211 523.204 367.211C519.62 367.211 515.076 367.211 509.572 367.211C504.068 367.211 497.86 366.825 490.948 366.051C484.036 365.407 476.548 364.183 468.484 362.38C460.419 360.576 452.035 357.87 443.331 354.263C434.627 350.655 425.731 346.017 416.643 340.348C407.683 334.55 398.851 327.335 390.147 318.703C376.195 304.917 365.699 289.585 358.659 272.707C351.747 255.829 348.291 238.306 348.291 220.14C348.291 219.238 348.291 218.272 348.291 217.241C348.547 205.388 350.403 193.534 353.859 181.681C357.443 169.699 362.627 158.232 369.411 147.281C376.323 136.329 384.899 126.151 395.139 116.746C405.379 107.211 417.411 98.9656 431.235 92.0082C445.059 85.0508 460.611 79.5751 477.892 75.5811C495.3 71.587 514.564 69.59 535.684 69.59C554.372 69.59 571.652 71.0717 587.524 74.035C603.525 76.8695 618.245 80.7991 631.685 85.8239C645.125 90.8487 657.413 96.7753 668.549 103.604C679.685 110.432 689.797 117.841 698.885 125.829C707.973 133.688 716.037 141.934 723.077 150.566C730.246 159.07 736.582 167.637 742.086 176.27V76.7406H794.502Z" fill="#F0ECE7"/>
<path d="M832.326 76.7406H1042.57L1043.14 427.837C1043.14 427.837 1038.02 413.972 1023.58 396.806C1009.13 379.64 993.607 371.386 993.607 371.386V124.283H883.399V362.707V348.608C883.399 348.608 867.902 349.03 858.123 350.589C848.345 352.149 832.326 355.871 832.326 355.871V76.7406Z" fill="#F0ECE7"/>
<path d="M198.722 653.724C180.801 653.724 163.457 652.5 146.689 650.052C129.921 647.604 114.177 643.932 99.4567 639.036C84.7366 634.011 71.2965 627.698 59.1364 620.096C46.9764 612.495 36.4803 603.476 27.6482 593.04C18.9441 582.475 12.1601 570.428 7.29605 556.9C2.43202 543.372 0 528.297 0 511.677C0 495.83 2.43202 481.335 7.29605 468.194C12.1601 455.052 18.9441 443.199 27.6482 432.634C36.4803 422.069 46.9764 412.857 59.1364 404.997C71.2965 397.009 84.7366 390.374 99.4567 385.092C114.177 379.809 129.921 375.879 146.689 373.303C163.457 370.597 180.801 369.244 198.722 369.244L198.529 416.786C174.593 416.915 153.409 419.75 134.977 425.29C116.673 430.701 101.313 437.852 88.8967 446.742C76.4806 455.503 67.0085 465.552 60.4805 476.89C54.0804 488.099 50.7524 499.631 50.4964 511.484C50.4964 511.999 50.4964 512.515 50.4964 513.03C50.4964 524.368 53.4404 535.577 59.3284 546.657C65.2165 557.738 74.3046 567.723 86.5926 576.613C99.0087 585.503 114.497 592.718 133.057 598.258C151.745 603.798 173.569 606.632 198.529 606.761L198.722 653.724Z" fill="#F0ECE7"/>
<path d="M372.675 543.565C372.675 566.885 371.139 586.211 368.067 601.543C364.995 616.875 360.451 629.115 354.435 638.263C348.547 647.282 341.123 653.659 332.162 657.395C323.33 661.132 313.09 663 301.442 663C290.946 663 281.666 661.454 273.602 658.362C265.666 655.27 258.818 651.211 253.058 646.186C247.298 641.162 242.498 635.557 238.658 629.373C234.818 623.188 231.746 617.004 229.442 610.82C227.138 604.635 225.538 598.773 224.642 593.233C223.746 587.693 223.298 583.119 223.298 579.512H268.994C268.994 593.942 271.81 604.893 277.442 612.366C283.202 619.71 290.562 623.382 299.522 623.382C304.642 623.382 308.802 621.771 312.002 618.55C315.202 615.2 317.698 610.433 319.49 604.249C321.41 598.065 322.69 590.656 323.33 582.024C323.97 573.263 324.29 563.471 324.29 552.648V552.262C319.938 552.906 315.778 553.421 311.81 553.808C307.97 554.194 304.258 554.388 300.674 554.388C285.57 554.388 272.962 551.746 262.85 546.464C252.738 541.182 244.61 534.224 238.466 525.592C232.322 516.831 227.778 506.974 224.834 496.023C222.018 484.943 220.29 473.605 219.65 462.009C219.394 457.629 219.266 453.184 219.266 448.674C219.266 424.968 222.658 398.62 229.442 369.631H278.786C272.514 396.816 269.186 421.038 268.802 442.297C268.802 443.199 268.802 444.165 268.802 445.196C268.802 453.184 269.314 461.365 270.338 469.74C271.362 477.985 273.41 485.523 276.482 492.351C279.682 499.051 284.034 504.526 289.538 508.778C295.17 512.901 302.338 514.963 311.042 514.963C314.754 514.963 319.17 514.447 324.29 513.416V369.894C324.29 369.894 324.406 365.251 321.456 362.186C318.507 359.122 313.154 358.321 313.154 358.321L372.575 359.512C372.575 359.512 372.575 365.449 372.675 369.838C372.775 374.227 372.675 543.565 372.675 543.565Z" fill="#F0ECE7"/>
<path d="M727.493 369.437V663H672.197V419.492C658.373 423.486 643.141 428.253 626.501 433.793C609.989 439.204 592.004 446.355 572.548 455.245C562.436 459.883 552.132 465.037 541.636 470.706C531.14 476.246 520.964 482.302 511.108 488.872C501.252 495.443 491.972 502.465 483.268 509.938C474.564 517.282 466.948 525.141 460.419 533.516C454.019 541.761 448.899 550.458 445.059 559.606C441.347 568.753 439.491 578.288 439.491 588.208C439.491 594.393 440.451 599.288 442.371 602.896C444.419 606.375 446.787 609.016 449.475 610.82C452.163 612.495 454.979 613.59 457.923 614.105C460.867 614.492 463.299 614.685 465.22 614.685V660.488C463.043 660.488 459.587 660.166 454.851 659.521C450.115 659.006 444.867 657.911 439.107 656.236C433.347 654.561 427.395 652.113 421.251 648.892C415.235 645.671 409.667 641.419 404.547 636.137C399.555 630.726 395.459 624.155 392.259 616.424C389.059 608.565 387.459 599.16 387.459 588.208C387.459 573.134 390.211 558.833 395.715 545.304C401.219 531.647 408.707 518.828 418.179 506.846C427.651 494.863 438.787 483.654 451.587 473.218C464.516 462.653 478.34 452.862 493.06 443.843C507.908 434.824 523.332 426.578 539.332 419.105C555.332 411.504 571.204 404.611 586.948 398.426C602.693 392.242 617.925 386.766 632.645 381.999C647.493 377.103 661.125 372.916 673.541 369.437H727.493Z" fill="#F0ECE7"/>
<path d="M1042.57 537.187C1042.44 539.764 1042.38 542.406 1042.38 545.111C1042.38 550.136 1042.63 555.934 1043.14 562.505C1043.78 569.075 1044.94 575.904 1046.6 582.99C1048.26 589.948 1050.31 596.003 1052.74 601.157C1055.18 606.181 1057.06 608.386 1061 611.206L1036.23 657.782C1031.24 655.463 1026.76 652.5 1022.79 648.892C1018.95 645.156 1015.5 640.968 1012.42 636.33C1009.35 631.692 1006.66 626.731 1004.36 621.449C1002.18 616.167 1000.26 610.755 998.6 605.215C991.303 613.074 983.175 620.289 974.215 626.86C965.255 633.431 955.527 639.165 945.031 644.06C934.663 648.828 923.591 652.564 911.815 655.27C900.167 658.104 887.943 659.715 875.143 660.101C873.479 660.101 871.879 660.101 870.343 660.101C859.591 660.101 848.966 658.877 838.47 656.429C827.974 654.11 817.99 650.631 808.518 645.993C799.174 641.226 790.726 635.686 783.174 629.373C775.75 622.931 769.414 616.038 764.166 608.694C758.918 601.35 754.886 593.748 752.07 585.889C749.382 577.901 748.038 570.106 748.038 562.505C748.038 549.878 750.086 539.185 754.182 530.423C758.406 521.533 763.782 514.125 770.31 508.198C776.966 502.143 784.39 497.311 792.582 493.704C800.902 490.096 809.158 487.326 817.35 485.394C825.67 483.461 833.478 482.108 840.774 481.335C848.198 480.562 854.342 479.982 859.206 479.596L861.895 479.403C869.703 478.758 878.663 478.243 888.775 477.857C899.015 477.341 909.767 477.019 921.031 476.89C932.295 476.633 943.751 476.504 955.399 476.504C967.175 476.504 978.503 476.568 989.383 476.697C989.383 469.353 986.887 461.751 981.895 453.892C976.903 445.904 970.055 438.625 961.351 432.054C952.647 425.354 942.279 419.878 930.247 415.627C918.343 411.246 905.479 409.056 891.655 409.056C883.975 409.056 876.039 409.829 867.847 411.375C859.782 412.921 851.526 415.433 843.078 418.912C834.758 422.391 827.726 426.068 817.895 430.755C815.104 432.086 812.48 433.219 810.006 434.21C793.18 440.953 769.856 435.67 758.406 421.618C767.622 411.182 777.734 402.227 788.742 394.755C799.878 387.282 820.01 376.153 831.658 371.386C841.709 367.755 850.313 366.652 858.123 365.114C866.89 363.388 875.27 363.148 883.399 362.707C886.188 362.556 888.94 362.48 891.655 362.48C910.599 362.48 927.495 364.477 942.343 368.471C957.191 372.465 970.183 377.748 981.319 384.318C992.583 390.76 1002.06 398.104 1009.74 406.35C1017.54 414.596 1023.88 422.971 1028.74 431.474C1033.61 439.977 1037.13 448.223 1039.3 456.211C1041.48 464.199 1042.57 471.221 1042.57 477.277C1042.57 477.406 1042.82 477.338 1042.57 477.338C1042.44 477.338 1042.57 477.534 1042.57 477.663V537.187ZM811.782 588.981C821.126 597.485 831.43 603.733 842.694 607.728C853.958 611.722 865.607 613.719 877.639 613.719C890.695 613.719 903.623 611.528 916.423 607.148C929.223 602.767 940.935 596.583 951.559 588.595C962.311 580.478 971.463 570.815 979.015 559.606C986.567 548.268 991.559 535.641 993.992 521.727C983.111 521.598 971.719 521.533 959.815 521.533C948.039 521.533 936.455 521.662 925.063 521.92C913.671 522.049 902.855 522.306 892.615 522.693C882.375 523.079 873.415 523.595 865.734 524.239L862.855 524.432C849.926 525.592 839.302 527.074 830.982 528.877C822.662 530.681 816.07 533.065 811.206 536.028C806.342 538.991 802.95 542.663 801.03 547.044C799.11 551.296 798.15 556.449 798.15 562.505C798.15 567.401 799.366 572.039 801.798 576.419C804.358 580.671 807.686 584.858 811.782 588.981Z" fill="#F0ECE7"/>
</svg>
